<svg width="20" height="19" viewBox="0 0 20 19" fill="none" xmlns="http://www.w3.org/2000/svg">
<g id="metamask-icon" clip-path="url(#clip0_618_2420)">
<path id="Vector" d="M18.988 0.0195312L11.1992 5.80414L12.6399 2.39119L18.988 0.0195312Z" fill="#E2761B" stroke="#E2761B" stroke-linecap="round" stroke-linejoin="round"/>
<path id="Vector_2" d="M1.00391 0.0195312L8.73011 5.85889L7.35997 2.39119L1.00391 0.0195312Z" fill="#E4761B" stroke="#E4761B" stroke-linecap="round" stroke-linejoin="round"/>
<path id="Vector_3" d="M16.1837 13.4287L14.1094 16.6069L18.5479 17.8278L19.8239 13.4992L16.1837 13.4287Z" fill="#E4761B" stroke="#E4761B" stroke-linecap="round" stroke-linejoin="round"/>
<path id="Vector_4" d="M0.183594 13.4992L1.45173 17.8278L5.89023 16.6069L3.81591 13.4287L0.183594 13.4992Z" fill="#E4761B" stroke="#E4761B" stroke-linecap="round" stroke-linejoin="round"/>
<path id="Vector_5" d="M5.63937 8.05865L4.40234 9.92975L8.80933 10.1255L8.65298 5.38965L5.63937 8.05865Z" fill="#E4761B" stroke="#E4761B" stroke-linecap="round" stroke-linejoin="round"/>
<path id="Vector_6" d="M14.3538 8.05871L11.3012 5.33496L11.1992 10.1255L15.5987 9.9298L14.3538 8.05871Z" fill="#E4761B" stroke="#E4761B" stroke-linecap="round" stroke-linejoin="round"/>
<path id="Vector_7" d="M5.89062 16.6069L8.53639 15.3151L6.25059 13.5303L5.89062 16.6069Z" fill="#E4761B" stroke="#E4761B" stroke-linecap="round" stroke-linejoin="round"/>
<path id="Vector_8" d="M11.457 15.3151L14.1107 16.6069L13.7428 13.5303L11.457 15.3151Z" fill="#E4761B" stroke="#E4761B" stroke-linecap="round" stroke-linejoin="round"/>
<path id="Vector_9" d="M14.1107 16.6072L11.457 15.3154L11.6685 17.0455L11.6449 17.7733L14.1107 16.6072Z" fill="#D7C1B3" stroke="#D7C1B3" stroke-linecap="round" stroke-linejoin="round"/>
<path id="Vector_10" d="M5.89062 16.6072L8.35641 17.7733L8.34066 17.0455L8.53639 15.3154L5.89062 16.6072Z" fill="#D7C1B3" stroke="#D7C1B3" stroke-linecap="round" stroke-linejoin="round"/>
<path id="Vector_11" d="M8.39493 12.3877L6.1875 11.7378L7.74511 11.0254L8.39493 12.3877Z" fill="#233447" stroke="#233447" stroke-linecap="round" stroke-linejoin="round"/>
<path id="Vector_12" d="M11.5977 12.3877L12.2475 11.0254L13.813 11.7378L11.5977 12.3877Z" fill="#233447" stroke="#233447" stroke-linecap="round" stroke-linejoin="round"/>
<path id="Vector_13" d="M5.89072 16.6069L6.26644 13.4287L3.81641 13.4992L5.89072 16.6069Z" fill="#CD6116" stroke="#CD6116" stroke-linecap="round" stroke-linejoin="round"/>
<path id="Vector_14" d="M13.7344 13.4287L14.1101 16.6069L16.1844 13.4992L13.7344 13.4287Z" fill="#CD6116" stroke="#CD6116" stroke-linecap="round" stroke-linejoin="round"/>
<path id="Vector_15" d="M15.5987 9.92969L11.1992 10.1254L11.6064 12.3876L12.2563 11.0253L13.8218 11.7378L15.5987 9.92969Z" fill="#CD6116" stroke="#CD6116" stroke-linecap="round" stroke-linejoin="round"/>
<path id="Vector_16" d="M6.18719 11.7378L7.75268 11.0253L8.39462 12.3876L8.80933 10.1254L4.40234 9.92969L6.18719 11.7378Z" fill="#CD6116" stroke="#CD6116" stroke-linecap="round" stroke-linejoin="round"/>
<path id="Vector_17" d="M4.40234 9.92969L6.24981 13.5301L6.18719 11.7378L4.40234 9.92969Z" fill="#E4751F" stroke="#E4751F" stroke-linecap="round" stroke-linejoin="round"/>
<path id="Vector_18" d="M13.8206 11.7378L13.7422 13.5301L15.5975 9.92969L13.8206 11.7378Z" fill="#E4751F" stroke="#E4751F" stroke-linecap="round" stroke-linejoin="round"/>
<path id="Vector_19" d="M8.80924 10.125L8.39453 12.3872L8.91124 15.0562L9.0286 11.5416L8.80924 10.125Z" fill="#E4751F" stroke="#E4751F" stroke-linecap="round" stroke-linejoin="round"/>
<path id="Vector_20" d="M11.1994 10.125L10.9883 11.5337L11.082 15.0562L11.6066 12.3872L11.1994 10.125Z" fill="#E4751F" stroke="#E4751F" stroke-linecap="round" stroke-linejoin="round"/>
<path id="Vector_21" d="M11.6066 12.3871L11.082 15.0561L11.4577 15.3145L13.7436 13.5296L13.8219 11.7373L11.6066 12.3871Z" fill="#F6851B" stroke="#F6851B" stroke-linecap="round" stroke-linejoin="round"/>
<path id="Vector_22" d="M6.1875 11.7373L6.25012 13.5296L8.53592 15.3145L8.91164 15.0561L8.39493 12.3871L6.1875 11.7373Z" fill="#F6851B" stroke="#F6851B" stroke-linecap="round" stroke-linejoin="round"/>
<path id="Vector_23" d="M11.6437 17.7726L11.6674 17.0448L11.4716 16.8723H8.52064L8.34066 17.0448L8.35641 17.7726L5.89062 16.6064L6.75154 17.3106L8.49701 18.524H11.4953L13.2486 17.3106L14.1095 16.6064L11.6437 17.7726Z" fill="#C0AD9E" stroke="#C0AD9E" stroke-linecap="round" stroke-linejoin="round"/>
<path id="Vector_24" d="M11.4551 15.315L11.0793 15.0566H8.91129L8.53558 15.315L8.33984 17.0451L8.51983 16.8726H11.4708L11.6665 17.0451L11.4551 15.315Z" fill="#161616" stroke="#161616" stroke-linecap="round" stroke-linejoin="round"/>
<path id="Vector_25" d="M19.3164 6.17986L19.9815 2.98627L18.9875 0.0195312L11.457 5.60841L14.3533 8.05844L18.4472 9.25609L19.3553 8.19943L18.9639 7.91784L19.5901 7.34639L19.1049 6.97068L19.7311 6.49296L19.3164 6.17986Z" fill="#763D16" stroke="#763D16" stroke-linecap="round" stroke-linejoin="round"/>
<path id="Vector_26" d="M0.0195312 2.98627L0.684715 6.17986L0.262132 6.49296L0.888326 6.97068L0.411001 7.34639L1.03719 7.91784L0.645725 8.19943L1.54603 9.25609L5.63992 8.05844L8.53616 5.60841L1.00569 0.0195312L0.0195312 2.98627Z" fill="#763D16" stroke="#763D16" stroke-linecap="round" stroke-linejoin="round"/>
<path id="Vector_27" d="M18.4465 9.25624L14.3526 8.05859L15.5975 9.92969L13.7422 13.5301L16.1843 13.499H19.8245L18.4465 9.25624Z" fill="#F6851B" stroke="#F6851B" stroke-linecap="round" stroke-linejoin="round"/>
<path id="Vector_28" d="M5.63975 8.05859L1.54586 9.25624L0.183594 13.499H3.81591L6.25019 13.5301L4.40272 9.92969L5.63975 8.05859Z" fill="#F6851B" stroke="#F6851B" stroke-linecap="round" stroke-linejoin="round"/>
<path id="Vector_29" d="M11.1988 10.1257L11.4572 5.60882L12.6473 2.3916H7.36328L8.53769 5.60882L8.8114 10.1257L8.90553 11.5502L8.91341 15.0569H11.0815L11.0972 11.5502L11.1988 10.1257Z" fill="#F6851B" stroke="#F6851B" stroke-linecap="round" stroke-linejoin="round"/>
</g>
<defs>
<clipPath id="clip0_618_2420">
<rect width="20" height="18.544" fill="white"/>
</clipPath>
</defs>
</svg>
