<svg width="249" height="47" viewBox="0 0 249 47" fill="none" xmlns="http://www.w3.org/2000/svg">
<path d="M9.486 12.238L5.642 34L0.341 34L4.185 12.238L9.486 12.238Z" fill="white"/>
<path d="M34.648 22.902L41.437 34L34.958 34L29.347 24.39L27.642 34L22.341 34L26.185 12.238L31.486 12.238L29.812 21.786L38.771 12.238L44.971 12.238L34.648 22.902ZM63.4242 34L58.1232 34L51.6442 20.577L49.2572 34L43.9562 34L47.8002 12.238L53.1012 12.238L59.5802 25.723L61.9672 12.238L67.2682 12.238L63.4242 34ZM77.6208 34.217C75.7814 34.217 74.1591 33.8347 72.7538 33.07C71.3691 32.3053 70.2944 31.2307 69.5298 29.846C68.7651 28.4613 68.3828 26.87 68.3828 25.072C68.3828 22.53 68.9304 20.267 70.0258 18.283C71.1211 16.2783 72.6401 14.718 74.5828 13.602C76.5461 12.486 78.7678 11.928 81.2478 11.928C83.1078 11.928 84.7404 12.3103 86.1458 13.075C87.5511 13.819 88.6361 14.8833 89.4008 16.268C90.1654 17.632 90.5478 19.2027 90.5478 20.98C90.5478 23.522 90.0001 25.8057 88.9048 27.831C87.8094 29.8357 86.2801 31.4063 84.3168 32.543C82.3534 33.659 80.1214 34.217 77.6208 34.217ZM78.4268 29.319C79.7908 29.319 80.9894 28.9677 82.0228 28.265C83.0561 27.5623 83.8518 26.622 84.4098 25.444C84.9884 24.2453 85.2778 22.9537 85.2778 21.569C85.2778 20.081 84.8644 18.9133 84.0378 18.066C83.2111 17.2187 82.0538 16.795 80.5658 16.795C79.2018 16.795 77.9928 17.1463 76.9388 17.849C75.9054 18.5517 75.0994 19.492 74.5208 20.67C73.9628 21.8273 73.6838 23.1087 73.6838 24.514C73.6838 26.002 74.0971 27.18 74.9238 28.048C75.7504 28.8953 76.9181 29.319 78.4268 29.319ZM125.427 12.238L115.91 34L109.493 34L108.532 19.709L102.425 34L96.0079 34L94.3339 12.238L100.007 12.238L100.348 28.079L107.013 12.238L112.872 12.238L113.802 27.986L119.723 12.238L125.427 12.238Z" fill="white"/>
<path d="M146.99 34.217C144.634 34.217 142.712 33.7107 141.224 32.698C139.757 31.6647 139.023 30.2077 139.023 28.327C139.023 28.141 139.044 27.862 139.085 27.49L144.603 27.49C144.541 28.2753 144.727 28.8953 145.161 29.35C145.595 29.8047 146.256 30.032 147.145 30.032C147.951 30.032 148.581 29.8563 149.036 29.505C149.511 29.1537 149.749 28.6577 149.749 28.017C149.749 27.3557 149.449 26.8183 148.85 26.405C148.271 25.9917 147.362 25.5267 146.122 25.01C144.923 24.514 143.942 24.049 143.177 23.615C142.433 23.1603 141.782 22.5507 141.224 21.786C140.666 21.0213 140.387 20.0603 140.387 18.903C140.366 17.477 140.718 16.237 141.441 15.183C142.164 14.129 143.167 13.323 144.448 12.765C145.729 12.207 147.197 11.928 148.85 11.928C150.338 11.928 151.661 12.1657 152.818 12.641C153.975 13.0957 154.874 13.7673 155.515 14.656C156.156 15.524 156.476 16.5573 156.476 17.756C156.476 18.066 156.466 18.2933 156.445 18.438L150.803 18.438C150.824 18.3553 150.834 18.2313 150.834 18.066C150.834 17.4873 150.627 17.0223 150.214 16.671C149.821 16.299 149.274 16.113 148.571 16.113C147.827 16.113 147.217 16.299 146.742 16.671C146.287 17.0223 146.06 17.508 146.06 18.128C146.06 18.748 146.349 19.275 146.928 19.709C147.507 20.1223 148.406 20.608 149.625 21.166C150.844 21.724 151.836 22.2407 152.601 22.716C153.386 23.1913 154.058 23.832 154.616 24.638C155.174 25.4233 155.453 26.3947 155.453 27.552C155.453 28.8333 155.112 29.9803 154.43 30.993C153.748 32.0057 152.766 32.8013 151.485 33.38C150.204 33.938 148.705 34.217 146.99 34.217ZM176.814 19.244C176.608 20.5047 176.122 21.662 175.357 22.716C174.593 23.7493 173.549 24.5863 172.226 25.227C170.924 25.8677 169.385 26.188 167.607 26.188L164.321 26.188L162.926 34L157.625 34L161.469 12.238L170.056 12.238C172.33 12.238 174.045 12.7443 175.202 13.757C176.36 14.749 176.938 16.1027 176.938 17.818C176.938 18.3347 176.897 18.81 176.814 19.244ZM167.917 22.034C169.901 22.034 171.069 21.104 171.42 19.244C171.462 18.9133 171.482 18.6757 171.482 18.531C171.482 17.8697 171.265 17.3633 170.831 17.012C170.418 16.64 169.777 16.454 168.909 16.454L166.026 16.454L165.065 22.034L167.917 22.034Z" fill="white"/>
<path d="M230.84 12.238L230.127 16.423L224.33 16.423L221.23 34L215.929 34L219.029 16.423L213.263 16.423L214.007 12.238L230.84 12.238ZM238.305 34.217C235.949 34.217 234.027 33.7107 232.539 32.698C231.072 31.6647 230.338 30.2077 230.338 28.327C230.338 28.141 230.359 27.862 230.4 27.49L235.918 27.49C235.856 28.2753 236.042 28.8953 236.476 29.35C236.91 29.8047 237.572 30.032 238.46 30.032C239.266 30.032 239.897 29.8563 240.351 29.505C240.827 29.1537 241.064 28.6577 241.064 28.017C241.064 27.3557 240.765 26.8183 240.165 26.405C239.587 25.9917 238.677 25.5267 237.437 25.01C236.239 24.514 235.257 24.049 234.492 23.615C233.748 23.1603 233.097 22.5507 232.539 21.786C231.981 21.0213 231.702 20.0603 231.702 18.903C231.682 17.477 232.033 16.237 232.756 15.183C233.48 14.129 234.482 13.323 235.763 12.765C237.045 12.207 238.512 11.928 240.165 11.928C241.653 11.928 242.976 12.1657 244.133 12.641C245.291 13.0957 246.19 13.7673 246.83 14.656C247.471 15.524 247.791 16.5573 247.791 17.756C247.791 18.066 247.781 18.2933 247.76 18.438L242.118 18.438C242.139 18.3553 242.149 18.2313 242.149 18.066C242.149 17.4873 241.943 17.0223 241.529 16.671C241.137 16.299 240.589 16.113 239.886 16.113C239.142 16.113 238.533 16.299 238.057 16.671C237.603 17.0223 237.375 17.508 237.375 18.128C237.375 18.748 237.665 19.275 238.243 19.709C238.822 20.1223 239.721 20.608 240.94 21.166C242.16 21.724 243.152 22.2407 243.916 22.716C244.702 23.1913 245.373 23.832 245.931 24.638C246.489 25.4233 246.768 26.3947 246.768 27.552C246.768 28.8333 246.427 29.9803 245.745 30.993C245.063 32.0057 244.082 32.8013 242.8 33.38C241.519 33.938 240.021 34.217 238.305 34.217Z" fill="white"/>
<ellipse cx="193.5" cy="23.5" rx="12.5" ry="12.5" fill="white"/>
<g filter="url(#filter0_b_1_15)">
<path d="M203.259 21.5754C203.162 21.5475 203.069 21.4979 202.987 21.423C202.736 21.1885 202.699 20.8159 202.905 20.5903C203.036 20.4483 203.23 20.3979 203.42 20.4384L203.55 19.5274C202.219 18.8464 200.383 18.0701 198.151 17.5908C197.167 17.3799 196.267 17.26 195.469 17.1976C194.585 17.1863 192.081 17.2591 189.899 18.8102C187.482 20.5275 187.038 22.9323 186.938 23.6553C187.734 22.8747 189.861 21.0472 193.51 20.6382C195.469 20.4189 197.192 20.6833 198.34 20.9484C198.946 21.0451 199.694 21.2107 200.531 21.5026C201.604 21.8778 202.468 22.3372 203.094 22.7218L203.257 21.5772L203.259 21.5754Z" fill="black"/>
<path d="M203.259 21.5754C203.162 21.5475 203.069 21.4979 202.987 21.423C202.736 21.1885 202.699 20.8159 202.905 20.5903C203.036 20.4483 203.23 20.3979 203.42 20.4384L203.55 19.5274C202.219 18.8464 200.383 18.0701 198.151 17.5908C197.167 17.3799 196.267 17.26 195.469 17.1976C194.585 17.1863 192.081 17.2591 189.899 18.8102C187.482 20.5275 187.038 22.9323 186.938 23.6553C187.734 22.8747 189.861 21.0472 193.51 20.6382C195.469 20.4189 197.192 20.6833 198.34 20.9484C198.946 21.0451 199.694 21.2107 200.531 21.5026C201.604 21.8778 202.468 22.3372 203.094 22.7218L203.257 21.5772L203.259 21.5754Z" stroke="black" stroke-width="0.2" stroke-miterlimit="10"/>
</g>
<g filter="url(#filter1_b_1_15)">
<path d="M199.259 26.9906C199.162 27.0185 199.069 27.0681 198.987 27.143C198.736 27.3775 198.699 27.7501 198.905 27.9756C199.036 28.1176 199.23 28.1681 199.42 28.1276L199.55 29.0386C198.219 29.7196 196.383 30.4958 194.151 30.9752C193.167 31.1861 192.267 31.3059 191.469 31.3684C190.585 31.3797 188.081 31.3069 185.899 29.7558C183.482 28.0385 183.038 25.6337 182.938 24.9107C183.734 25.6913 185.861 27.5187 189.51 27.9277C191.469 28.1471 193.192 27.8827 194.34 27.6176C194.946 27.5208 195.694 27.3553 196.531 27.0634C197.604 26.6882 198.468 26.2288 199.094 25.8442L199.257 26.9887L199.259 26.9906Z" fill="black"/>
<path d="M199.259 26.9906C199.162 27.0185 199.069 27.0681 198.987 27.143C198.736 27.3775 198.699 27.7501 198.905 27.9756C199.036 28.1176 199.23 28.1681 199.42 28.1276L199.55 29.0386C198.219 29.7196 196.383 30.4958 194.151 30.9752C193.167 31.1861 192.267 31.3059 191.469 31.3684C190.585 31.3797 188.081 31.3069 185.899 29.7558C183.482 28.0385 183.038 25.6337 182.938 24.9107C183.734 25.6913 185.861 27.5187 189.51 27.9277C191.469 28.1471 193.192 27.8827 194.34 27.6176C194.946 27.5208 195.694 27.3553 196.531 27.0634C197.604 26.6882 198.468 26.2288 199.094 25.8442L199.257 26.9887L199.259 26.9906Z" stroke="black" stroke-width="0.2" stroke-miterlimit="10"/>
</g>
<defs>
<filter id="filter0_b_1_15" x="-62.199" y="-231.905" width="514.857" height="504.835" filterUnits="userSpaceOnUse" color-interpolation-filters="sRGB">
<feFlood flood-opacity="0" result="BackgroundImageFix"/>
<feGaussianBlur in="BackgroundImageFix" stdDeviation="124.5"/>
<feComposite in2="SourceAlpha" operator="in" result="effect1_backgroundBlur_1_15"/>
<feBlend mode="normal" in="SourceGraphic" in2="effect1_backgroundBlur_1_15" result="shape"/>
</filter>
<filter id="filter1_b_1_15" x="-66.199" y="-224.364" width="514.857" height="504.835" filterUnits="userSpaceOnUse" color-interpolation-filters="sRGB">
<feFlood flood-opacity="0" result="BackgroundImageFix"/>
<feGaussianBlur in="BackgroundImageFix" stdDeviation="124.5"/>
<feComposite in2="SourceAlpha" operator="in" result="effect1_backgroundBlur_1_15"/>
<feBlend mode="normal" in="SourceGraphic" in2="effect1_backgroundBlur_1_15" result="shape"/>
</filter>
</defs>
</svg>
